<svg fill="none" height="193" viewBox="0 0 192 193" width="192" xmlns="http://www.w3.org/2000/svg"><path d="m0 92.577c0-43.4446 0-65.167 13.4965-78.6635 13.4965-13.496508 35.2189-13.496508 78.6635-13.496508h7.68c43.445 0 65.167 0 78.663 13.496508 13.497 13.4965 13.497 35.2189 13.497 78.6635v7.68c0 43.445 0 65.167-13.497 78.663-13.496 13.497-35.218 13.497-78.663 13.497h-7.68c-43.4446 0-65.167 0-78.6635-13.497-13.4965-13.496-13.4965-35.218-13.4965-78.663z" fill="#07f"/><path d="m102.16 138.738c-43.7603 0-68.7201-30-69.7601-79.9204h21.9199c.72 36.64 16.8797 52.1594 29.6797 55.3594v-55.3594h20.6405v31.5999c12.64-1.36 25.919-15.7599 30.399-31.5999h20.64c-3.44 19.52-17.84 33.9199-28.08 39.8399 10.24 4.7995 26.641 17.3605 32.881 40.0805h-22.721c-4.88-15.2-17.039-26.961-33.119-28.561v28.561z" fill="#fff"/></svg>